<svg id="wave" style="transform:rotate(0deg); transition: 0.3s" viewBox="0 0 1440 270" version="1.1" xmlns="http://www.w3.org/2000/svg"><defs><linearGradient id="sw-gradient-0" x1="0" x2="0" y1="1" y2="0"><stop stop-color="rgba(110, 8, 8, 1)" offset="0%"></stop><stop stop-color="rgba(250.873, 250.873, 250.873, 1)" offset="100%"></stop></linearGradient></defs><path style="transform:translate(0, 0px); opacity:1" fill="url(#sw-gradient-0)" d="M0,216L80,184.5C160,153,320,90,480,85.5C640,81,800,135,960,144C1120,153,1280,117,1440,121.5C1600,126,1760,171,1920,157.5C2080,144,2240,72,2400,76.5C2560,81,2720,162,2880,175.5C3040,189,3200,135,3360,135C3520,135,3680,189,3840,175.5C4000,162,4160,81,4320,45C4480,9,4640,18,4800,49.5C4960,81,5120,135,5280,157.5C5440,180,5600,171,5760,171C5920,171,6080,180,6240,162C6400,144,6560,99,6720,94.5C6880,90,7040,126,7200,130.5C7360,135,7520,108,7680,85.5C7840,63,8000,45,8160,54C8320,63,8480,99,8640,135C8800,171,8960,207,9120,193.5C9280,180,9440,117,9600,99C9760,81,9920,108,10080,103.5C10240,99,10400,63,10560,40.5C10720,18,10880,9,11040,27C11200,45,11360,90,11440,112.5L11520,135L11520,270L11440,270C11360,270,11200,270,11040,270C10880,270,10720,270,10560,270C10400,270,10240,270,10080,270C9920,270,9760,270,9600,270C9440,270,9280,270,9120,270C8960,270,8800,270,8640,270C8480,270,8320,270,8160,270C8000,270,7840,270,7680,270C7520,270,7360,270,7200,270C7040,270,6880,270,6720,270C6560,270,6400,270,6240,270C6080,270,5920,270,5760,270C5600,270,5440,270,5280,270C5120,270,4960,270,4800,270C4640,270,4480,270,4320,270C4160,270,4000,270,3840,270C3680,270,3520,270,3360,270C3200,270,3040,270,2880,270C2720,270,2560,270,2400,270C2240,270,2080,270,1920,270C1760,270,1600,270,1440,270C1280,270,1120,270,960,270C800,270,640,270,480,270C320,270,160,270,80,270L0,270Z"></path><defs><linearGradient id="sw-gradient-1" x1="0" x2="0" y1="1" y2="0"><stop stop-color="rgba(110, 8, 8, 1)" offset="0%"></stop><stop stop-color="rgba(255, 255, 255, 1)" offset="100%"></stop></linearGradient></defs><path style="transform:translate(0, 50px); opacity:0.9" fill="url(#sw-gradient-1)" d="M0,0L80,13.5C160,27,320,54,480,94.5C640,135,800,189,960,180C1120,171,1280,99,1440,67.5C1600,36,1760,45,1920,67.5C2080,90,2240,126,2400,121.5C2560,117,2720,72,2880,76.5C3040,81,3200,135,3360,166.5C3520,198,3680,207,3840,184.5C4000,162,4160,108,4320,103.5C4480,99,4640,144,4800,144C4960,144,5120,99,5280,99C5440,99,5600,144,5760,162C5920,180,6080,171,6240,144C6400,117,6560,72,6720,76.5C6880,81,7040,135,7200,139.5C7360,144,7520,99,7680,108C7840,117,8000,180,8160,171C8320,162,8480,81,8640,40.5C8800,0,8960,0,9120,13.5C9280,27,9440,54,9600,94.5C9760,135,9920,189,10080,207C10240,225,10400,207,10560,180C10720,153,10880,117,11040,103.5C11200,90,11360,99,11440,103.5L11520,108L11520,270L11440,270C11360,270,11200,270,11040,270C10880,270,10720,270,10560,270C10400,270,10240,270,10080,270C9920,270,9760,270,9600,270C9440,270,9280,270,9120,270C8960,270,8800,270,8640,270C8480,270,8320,270,8160,270C8000,270,7840,270,7680,270C7520,270,7360,270,7200,270C7040,270,6880,270,6720,270C6560,270,6400,270,6240,270C6080,270,5920,270,5760,270C5600,270,5440,270,5280,270C5120,270,4960,270,4800,270C4640,270,4480,270,4320,270C4160,270,4000,270,3840,270C3680,270,3520,270,3360,270C3200,270,3040,270,2880,270C2720,270,2560,270,2400,270C2240,270,2080,270,1920,270C1760,270,1600,270,1440,270C1280,270,1120,270,960,270C800,270,640,270,480,270C320,270,160,270,80,270L0,270Z"></path></svg> 