<?xml version="1.0" encoding="utf-8"?>
<!-- Generator: Adobe Illustrator 24.2.0, SVG Export Plug-In . SVG Version: 6.00 Build 0)  -->
<svg version="1.1" id="LOGO_OFFICIEL_xA0_Image_1_" xmlns="http://www.w3.org/2000/svg" xmlns:xlink="http://www.w3.org/1999/xlink"
	 x="0px" y="0px" viewBox="0 0 1551.65 1233.6" style="enable-background:new 0 0 1551.65 1233.6;" xml:space="preserve">
<style type="text/css">
	.st0{fill:#6E150F;}
	.st1{fill:#010202;}
	.st2{font-family:'BerlinSansFB-Reg';}
	.st3{font-size:125px;}
	.st4{fill:#D3AB1B;}
	.st5{fill:#FFFFFF;}
	.st6{fill:url(#SVGID_1_);}
	.st7{fill:url(#SVGID_2_);}
	.st8{fill:url(#SVGID_3_);}
	.st9{fill:url(#SVGID_4_);}
	.st10{fill:url(#SVGID_5_);}
	.st11{fill:url(#SVGID_6_);}
	.st12{fill:url(#SVGID_7_);}
	.st13{fill:url(#SVGID_8_);}
	.st14{fill:url(#SVGID_9_);}
	.st15{fill:url(#SVGID_10_);}
	.st16{fill:url(#SVGID_11_);}
	.st17{fill:url(#SVGID_12_);}
	.st18{fill:url(#SVGID_13_);}
	.st19{fill:url(#SVGID_14_);}
	.st20{fill:url(#SVGID_15_);}
	.st21{fill:url(#SVGID_16_);}
	.st22{fill:url(#SVGID_17_);}
</style>
<g>
	<path class="st0" d="M106.77,786.97h114.96c0.65,0,1.23,0.18,1.63,0.53l14.83,12.39c0.37,0.29,0.53,0.64,0.53,1v58.59
		c0,0.85-0.94,1.52-2.12,1.52h-48.98c-1.18,0-2.12-0.67-2.12-1.52v-61.82c0-0.85-0.94-1.52-2.12-1.52h-23.41
		c-1.18,0-2.12,0.67-2.12,1.52V898.8c0,0.85,0.94,1.52,2.12,1.52h62.79c1.19,0,2.12,0.67,2.12,1.52v6.09c0,0.85-0.94,1.52-2.12,1.52
		h-62.79c-1.18,0-2.12,0.67-2.12,1.52v105.32c0,0.85-0.94,1.52-2.12,1.52h-48.94c-1.19,0-2.12-0.67-2.12-1.52V788.5
		C104.65,787.65,105.59,786.97,106.77,786.97z"/>
	<path class="st0" d="M385.32,787.5l14.69,12.22c0.32,0.26,0.53,0.62,0.53,1v215.6c0,0.85-0.93,1.52-2.11,1.52h-48.67
		c-1.18,0-2.11-0.67-2.11-1.52v-66.39c0-0.85-0.93-1.52-2.11-1.52h-23.26c-1.18,0-2.11,0.67-2.11,1.52v66.36
		c0,0.85-0.93,1.52-2.11,1.52h-48.63c-1.18,0-2.11-0.67-2.11-1.52V800.71c0-0.35,0.2-0.7,0.53-1l14.69-12.22
		c0.41-0.32,0.97-0.53,1.58-0.53h99.57C384.34,786.97,384.91,787.18,385.32,787.5z M347.65,937.71V797.67
		c0-0.85-0.93-1.52-2.11-1.52h-23.26c-1.18,0-2.11,0.67-2.11,1.52v140.04c0,0.85,0.93,1.52,2.11,1.52h23.26
		C346.72,939.23,347.69,938.56,347.65,937.71z"/>
	<path class="st0" d="M559.4,861.01h-49.08c-1.19,0-2.13-0.67-2.13-1.52v-61.82c0-0.85-0.94-1.52-2.13-1.52h-23.48
		c-1.19,0-2.13,0.67-2.13,1.52v209.5c0,0.85,0.94,1.52,2.13,1.52h23.48c1.19,0,2.13-0.67,2.13-1.52v-61.82
		c0-0.85,0.94-1.52,2.13-1.52h49.12c1.19,0,2.13,0.67,2.13,1.52v58.56c0,0.38-0.2,0.73-0.53,1l-14.87,12.39
		c-0.41,0.32-1.02,0.53-1.64,0.53H429.19c-1.19,0-2.13-0.67-2.13-1.52V788.5c0-0.85,0.94-1.52,2.13-1.52h115.29
		c0.66,0,1.23,0.18,1.64,0.53L561,799.89c0.37,0.29,0.53,0.64,0.53,1v58.56C561.53,860.3,560.59,861.01,559.4,861.01z"/>
	<path class="st0" d="M749.29,1007.17v-61.82c0-0.85,0.92-1.52,2.07-1.52h47.75c1.16,0,2.07,0.67,2.07,1.52v58.56
		c0,0.38-0.2,0.73-0.52,1l-14.46,12.39c-0.4,0.32-1,0.53-1.59,0.53H672.5c-1.16,0-2.07-0.67-2.07-1.52V788.5
		c0-0.85,0.92-1.52,2.07-1.52h47.71c1.15,0,2.07,0.67,2.07,1.52v218.64c0,0.85,0.92,1.52,2.07,1.52h22.82
		C748.33,1008.66,749.29,1007.99,749.29,1007.17z"/>
	<path class="st0" d="M642.75,1017.31c-0.4,0.32-1,0.53-1.59,0.53h-48.78c-1.16,0-2.07-0.67-2.07-1.52V788.5
		c0-0.85,0.92-1.52,2.07-1.52h47.71c1.15,0,2.07,0.67,2.07,1.52L642.75,1017.31z"/>
	<path class="st0" d="M883.52,1017.31c-0.4,0.32-1,0.53-1.59,0.53h-48.78c-1.16,0-2.07-0.67-2.07-1.52V788.5
		c0-0.85,0.92-1.52,2.07-1.52h47.71c1.15,0,2.07,0.67,2.07,1.52L883.52,1017.31z"/>
	<path class="st0" d="M1127.39,1017.31c-0.4,0.32-1,0.53-1.59,0.53h-48.78c-1.16,0-2.07-0.67-2.07-1.52V788.5
		c0-0.85,0.92-1.52,2.07-1.52h47.71c1.15,0,2.07,0.67,2.07,1.52L1127.39,1017.31z"/>
	<path class="st0" d="M1045.44,786.97v7.65c0,0.85-0.93,1.52-2.11,1.52h-35.95c-1.18,0-2.11,0.67-2.11,1.52v218.61
		c0,0.85-0.93,1.52-2.11,1.52h-48.61c-1.18,0-2.11-0.67-2.11-1.52V797.64c0-0.85-0.93-1.52-2.11-1.52h-35.95
		c-1.18,0-2.11-0.67-2.11-1.52v-7.62H1045.44z"/>
	<path class="st0" d="M1157.5,786.97h114.65c0.65,0,1.22,0.18,1.63,0.53l14.79,12.39c0.37,0.29,0.53,0.64,0.53,1v58.59
		c0,0.85-0.94,1.52-2.12,1.52h-48.85c-1.18,0-2.12-0.67-2.12-1.52v-61.82c0-0.85-0.94-1.52-2.12-1.52h-23.34
		c-1.18,0-2.12,0.67-2.12,1.52V898.8c0,0.85,0.94,1.52,2.12,1.52h62.66c1.18,0,2.12,0.67,2.12,1.52v6.09c0,0.85-0.94,1.52-2.12,1.52
		h-62.62c-1.18,0-2.12,0.67-2.12,1.52v96.18c0,0.85,0.94,1.52,2.12,1.52h23.34c1.18,0,2.12-0.67,2.12-1.52v-61.82
		c0-0.85,0.94-1.52,2.12-1.52h48.85c1.18,0,2.12,0.67,2.12,1.52v58.56c0,0.38-0.2,0.73-0.53,1l-14.79,12.39
		c-0.41,0.32-1.02,0.53-1.63,0.53H1157.5c-1.18,0-2.12-0.67-2.12-1.52V788.5C1155.38,787.65,1156.31,786.97,1157.5,786.97z"/>
	<path class="st0" d="M1333.24,786.97h99.41c0.65,0,1.22,0.18,1.62,0.53l14.72,12.39c0.36,0.29,0.53,0.64,0.53,1v58.59
		c0,0.85-0.93,1.52-2.11,1.52h-48.63c-1.18,0-2.11-0.67-2.11-1.52v-61.82c0-0.85-0.93-1.52-2.11-1.52h-23.24
		c-1.18,0-2.11,0.67-2.11,1.52V898.8c0,0.85,0.93,1.52,2.11,1.52h61.37c0.65,0,1.22,0.18,1.62,0.53l14.72,12.39
		c0.37,0.29,0.53,0.64,0.53,1v89.65c0,0.38-0.2,0.73-0.53,1l-15.33,12.92h-0.65h-99.78c-0.65,0-1.22-0.18-1.62-0.53l-14.72-12.39
		c-0.36-0.29-0.53-0.64-0.53-1v-58.56c0-0.85,0.93-1.52,2.11-1.52h48.67c1.18,0,2.11,0.67,2.11,1.52v61.82
		c0,0.85,0.93,1.52,2.11,1.52h23.24c1.18,0,2.11-0.67,2.11-1.52v-96.15c0-0.85-0.93-1.52-2.11-1.52h-61.37
		c-0.65,0-1.22-0.18-1.62-0.53l-14.72-12.39c-0.36-0.29-0.53-0.64-0.53-1v-94.66c0-0.35,0.16-0.7,0.53-1l14.68-12.39
		C1332.03,787.18,1332.59,786.97,1333.24,786.97z"/>
	<text transform="matrix(1 0 0 1 74.3163 1156.8481)" class="st1 st2 st3">propreté &amp; services associés</text>
	<g>
		<g>
			<path class="st1" d="M624.12,496.89c-17.56-23.52-40.68-41.96-67.34-53.67v-58.83c12.9-8.37,27.7-12.79,42.9-12.79
				c6.37,0,12.74,0.79,18.95,2.36c1.84,0.46,3.68,1,5.49,1.59V496.89z"/>
			<path class="st4" d="M599.67,374.1c6.16,0,12.33,0.77,18.34,2.29c1.2,0.3,2.41,0.64,3.6,1v112.23
				c-16.85-20.69-38.13-37.11-62.34-48.03v-55.83C571.5,378.13,585.41,374.1,599.67,374.1 M599.67,369.1
				c-16.39,0-32.17,5.06-45.39,13.94v61.81c29.41,12.57,54.53,33.6,72.34,59.85V373.77c-2.4-0.85-4.86-1.59-7.38-2.23
				C612.7,369.89,606.14,369.1,599.67,369.1L599.67,369.1z"/>
		</g>
		<g>
			<path class="st1" d="M556.78,458.65c21.44,19.82,30.42,49.92,22.93,78.16c-3.93,14.82-11.82,27.87-22.93,38.04V458.65z"/>
			<path class="st4" d="M559.28,464.7c7.26,7.87,12.85,17.23,16.38,27.55c4.9,14.3,5.46,29.49,1.63,43.92
				c-3.29,12.41-9.45,23.55-18.02,32.7V464.7 M554.28,453.19v127.09c13.21-10.55,23.2-25.31,27.85-42.83
				C590.59,505.54,578.32,472.59,554.28,453.19L554.28,453.19z"/>
		</g>
		<g>
			<path class="st1" d="M930.61,395.3c-3.7-17.45-9.97-33.97-18.65-49.13c-15.11-26.38-36.51-47.29-63.63-62.13
				c-27.08-14.82-58.7-22.33-93.99-22.33H624.12v44.33c-25.72,9.17-48.84,24.46-67.34,44.49v-72.8c2.62,0.18,5.1,0.27,7.5,0.27
				c6.5,0,12.41-0.66,18.05-2c31.51-7.53,55.24-30.02,63.83-60.37h97.88c51.41,0,97.43,9.54,136.77,28.35
				c39.26,18.78,70.24,45.2,92.08,78.54c14.59,22.28,24.43,46.75,29.28,72.79H930.61z"/>
			<path class="st4" d="M744.04,218.12c51.04,0,96.69,9.46,135.69,28.1c38.84,18.58,69.48,44.7,91.07,77.65
				c13.86,21.16,23.37,44.31,28.34,68.92h-66.5c-3.8-16.97-10.01-33.06-18.49-47.87c-15.34-26.79-37.07-48.01-64.6-63.08
				c-27.45-15.02-59.48-22.64-95.19-22.64H626.62h-5v5v40.08c-23.47,8.64-44.76,22.33-62.34,40.02v-63.93
				c1.71,0.08,3.37,0.12,5,0.12c6.7,0,12.79-0.68,18.63-2.07c31.28-7.47,55.91-30.4,65.11-60.3H744.04 M744.04,213.12h-99.79
				c-7.64,29.41-30.71,52.84-62.5,60.44c-5.82,1.39-11.64,1.94-17.47,1.94c-3.33,0-6.66-0.18-10-0.48v82.09
				c19.12-22.41,44.03-39.54,72.34-49.3v-43.6h127.73c35.02,0,65.95,7.34,92.79,22.02c26.83,14.68,47.72,35.08,62.66,61.18
				c8.94,15.63,15.19,32.43,18.78,50.39h76.57c-4.72-27.59-14.77-53.14-30.17-76.66c-22.2-33.88-53.24-60.36-93.09-79.42
				C842.02,222.65,796.07,213.12,744.04,213.12L744.04,213.12z"/>
		</g>
		<g>
			<path class="st1" d="M647.76,655.39c5.33-14.82,8.54-30.3,9.57-46.08h97.02c35.28,0,66.91-7.51,93.99-22.33
				c27.12-14.84,48.53-35.75,63.63-62.13c10.11-17.66,16.92-37.06,20.27-57.71h71.34c-4.19,29.32-14.51,56.68-30.68,81.38
				c-21.83,33.33-52.81,59.76-92.08,78.54c-39.34,18.81-85.36,28.35-136.77,28.35H647.76z"/>
			<path class="st4" d="M1000.67,469.63c-4.39,27.88-14.42,53.93-29.87,77.51c-21.58,32.95-52.22,59.07-91.07,77.65
				c-39,18.65-84.65,28.1-135.69,28.1h-92.77c4.47-13.28,7.28-27.05,8.38-41.09h94.69c35.71,0,67.73-7.62,95.19-22.64
				c27.53-15.07,49.27-36.29,64.6-63.08c9.91-17.32,16.7-36.29,20.21-56.46H1000.67 M1006.43,464.63h-76.34
				c-3.18,21.22-9.94,40.88-20.29,58.97c-14.94,26.11-35.83,46.5-62.66,61.18c-26.83,14.68-57.77,22.02-92.79,22.02h-99.37
				c-0.91,17.78-4.63,34.98-10.81,51.09h99.88c52.03,0,97.98-9.53,137.85-28.59c39.85-19.06,70.89-45.53,93.09-79.42
				C991.97,523.94,1002.45,495.53,1006.43,464.63L1006.43,464.63z"/>
		</g>
	</g>
	<g>
		<path class="st5" d="M516.74,436.69c-3.99-0.97-7.85-1.83-11.67-2.84c-62.84-16.72-110.46-69.11-121.14-133.25
			c-14.6-87.66,41.52-171,128.34-190.37c24.28-5.42,48.69-5.66,72.88,0.47c31.94,8.09,56.78,36.44,61.08,69.04
			c5.8,44.01-21.33,83.51-64.48,93.82c-12.27,2.93-24.53,2.11-36.92,0.34c-41.65-5.96-80.08,20.06-90.37,60.87
			c-11.07,43.91,16.81,89.02,60.99,98.7c0.53,0.12,1.06,0.21,1.67,0.34c1.5-5.72,2.8-11.38,4.48-16.92
			c18.06-59.51,67.63-103.91,128.65-115.34c90.6-16.96,177.73,42.74,194.6,133.42c4.18,22.47,4.05,44.96-1.59,67.18
			c-8.12,31.96-36.49,56.9-68.99,61.14c-44.14,5.76-83.55-21.27-93.87-64.4c-2.96-12.37-2.13-24.72-0.32-37.19
			c5.98-41.31-20.18-79.88-60.83-90.15c-44.33-11.2-89.87,17.31-99.02,61.97c-0.04,0.17,0,0.36,0,0.82
			c3.06,0.73,6.18,1.46,9.29,2.22c62.36,15.33,111.23,67.31,122.86,130.69c16.32,88.88-39.31,173.32-127.64,193.46
			c-24.26,5.53-48.68,5.71-72.88-0.39c-31.95-8.05-56.97-36.49-61.2-68.93c-5.77-44.28,21.36-83.79,64.58-94
			c12.28-2.9,24.54-2.05,36.92-0.28c41,5.87,79.37-19.71,89.97-59.66c11.92-44.92-17.26-91.91-62.51-100.25
			c-0.72,2.99-1.42,6.02-2.17,9.03c-16.01,63.69-67.57,111.83-132.33,123.56c-88.08,15.95-173.81-41.83-192.23-129.56
			c-5-23.8-5.24-47.62,0.71-71.25c8.09-32.14,36.18-56.8,69.15-61.29c46.36-6.31,88.03,24.96,95.04,71.36
			c1.52,10.08,0.45,20.07-0.99,30.11c-5.87,40.96,19.67,79.38,59.62,90.01C461.34,511.12,507.83,482.31,516.74,436.69z"/>
	</g>
	<g>
		<linearGradient id="SVGID_1_" gradientUnits="userSpaceOnUse" x1="337.6466" y1="533.697" x2="1001.9033" y2="150.472">
			<stop  offset="0" style="stop-color:#6E150F"/>
			<stop  offset="1" style="stop-color:#AD2B17"/>
			<stop  offset="1" style="stop-color:#000000"/>
		</linearGradient>
		<path class="st6" d="M520.21,434.33c2.89,0.69,5.84,1.38,8.77,2.1v-26.23c-4.04,7.1-7.05,14.92-8.77,23.32
			C520.18,433.69,520.21,433.88,520.21,434.33z"/>
		<linearGradient id="SVGID_2_" gradientUnits="userSpaceOnUse" x1="319.4492" y1="502.1548" x2="983.7059" y2="118.9298">
			<stop  offset="0" style="stop-color:#6E150F"/>
			<stop  offset="1" style="stop-color:#AD2B17"/>
			<stop  offset="1" style="stop-color:#000000"/>
		</linearGradient>
		<path class="st7" d="M516.74,436.69c-3.99-0.97-7.85-1.83-11.67-2.84c-38.38-10.21-71.07-33.75-93.15-65.13v129.11
			c1.48,0.48,2.97,0.94,4.5,1.35C461.34,511.12,507.83,482.31,516.74,436.69z"/>
		<linearGradient id="SVGID_3_" gradientUnits="userSpaceOnUse" x1="303.7084" y1="474.8709" x2="967.9651" y2="91.6459">
			<stop  offset="0" style="stop-color:#6E150F"/>
			<stop  offset="1" style="stop-color:#AD2B17"/>
			<stop  offset="1" style="stop-color:#000000"/>
		</linearGradient>
		<path class="st8" d="M454.47,334.76c-11.07,43.91,16.81,89.02,60.99,98.7c0.53,0.12,1.06,0.21,1.67,0.34
			c1.5-5.72,2.8-11.38,4.48-16.92c2.06-6.78,4.54-13.34,7.39-19.7V273.15C493.77,274.87,463.43,299.2,454.47,334.76z"/>
		<linearGradient id="SVGID_4_" gradientUnits="userSpaceOnUse" x1="188.1509" y1="274.5711" x2="852.4076" y2="-108.6539">
			<stop  offset="0" style="stop-color:#6E150F"/>
			<stop  offset="1" style="stop-color:#AD2B17"/>
			<stop  offset="1" style="stop-color:#000000"/>
		</linearGradient>
		<path class="st9" d="M498.81,113.83h-86.88v63.29C432.52,147.81,462.57,125.09,498.81,113.83z"/>
		<linearGradient id="SVGID_5_" gradientUnits="userSpaceOnUse" x1="522.4398" y1="854.0052" x2="1186.6965" y2="470.7802">
			<stop  offset="0" style="stop-color:#6E150F"/>
			<stop  offset="1" style="stop-color:#AD2B17"/>
			<stop  offset="1" style="stop-color:#000000"/>
		</linearGradient>
		<path class="st10" d="M987.26,562.93c-24.18,37.77-57.99,67.26-101.41,88.49c-43.43,21.24-93.48,31.86-150.16,31.86H631.84
			c-20.45,34.35-53.25,61.19-94.05,73.89h181.23c84.2,0,158.56-13.79,223.08-41.36c64.5-27.57,114.72-65.86,150.65-114.88
			c30.14-41.12,47.63-86.56,52.48-136.31h-123.3C1017.91,500.34,1006.36,533.11,987.26,562.93z"/>
		<linearGradient id="SVGID_6_" gradientUnits="userSpaceOnUse" x1="350.1803" y1="555.4221" x2="1014.437" y2="172.1971">
			<stop  offset="0" style="stop-color:#6E150F"/>
			<stop  offset="1" style="stop-color:#AD2B17"/>
			<stop  offset="1" style="stop-color:#000000"/>
		</linearGradient>
		<path class="st11" d="M1092.75,270.07c-35.93-49.01-86.15-87.31-150.65-114.88c-64.51-27.57-138.88-41.36-223.08-41.36H594.76
			c27.22,10.84,47.62,36.66,51.47,65.91c0.35,2.68,0.58,5.34,0.69,7.98h88.77c56.68,0,106.73,10.62,150.16,31.86
			c43.41,21.24,77.22,50.74,101.41,88.49c17.56,27.42,28.74,57.33,33.54,89.72h123.45C1138.3,351.4,1121.14,308.82,1092.75,270.07z"
			/>
		<linearGradient id="SVGID_7_" gradientUnits="userSpaceOnUse" x1="452.1623" y1="732.1909" x2="1116.4189" y2="348.9658">
			<stop  offset="0" style="stop-color:#6E150F"/>
			<stop  offset="1" style="stop-color:#AD2B17"/>
			<stop  offset="1" style="stop-color:#000000"/>
		</linearGradient>
		<path class="st12" d="M411.92,736.16v21.02h30.28C430.64,752.58,420.3,745.28,411.92,736.16z"/>
		<linearGradient id="SVGID_8_" gradientUnits="userSpaceOnUse" x1="376.4151" y1="600.8958" x2="1040.6719" y2="217.6707">
			<stop  offset="0" style="stop-color:#6E150F"/>
			<stop  offset="1" style="stop-color:#AD2B17"/>
			<stop  offset="1" style="stop-color:#000000"/>
		</linearGradient>
		<path class="st13" d="M517.45,446.23c-13.73,54.62-53.61,97.77-105.53,116.36v59.83c11.09-12.03,25.89-20.91,43.31-25.02
			c12.28-2.9,24.54-2.05,36.92-0.28c12.79,1.83,25.32,0.6,36.83-3.17v-154.4c-3.04-0.96-6.16-1.76-9.36-2.35
			C518.9,440.2,518.21,443.22,517.45,446.23z"/>
	</g>
	<rect x="929.92" y="419.6" class="st4" width="215.3" height="23.23"/>
</g>
<text transform="matrix(1 0 0 1 1701.7704 -463.2271)" style="font-family:'MyriadPro-Regular'; font-size:12px;">Lorem ipsum</text>
<g>
	
		<text transform="matrix(0.7 0 0 0.7 2012.7343 1001.0234)" class="st0" style="font-family:'Montserrat-SemiBold'; font-size:287px;">facilities</text>
	<text transform="matrix(1 0 0 1 1990.5183 1104.8584)" class="st1" style="font-family:'Cunia'; font-size:79.1613px;">propreté &amp; services associés</text>
	<g>
		<g>
			<path class="st4" d="M2228.14,379.2v61.81c28.27,12.57,52.42,33.6,69.54,59.85V369.92c-2.31-0.85-4.68-1.59-7.1-2.23
				C2268.38,361.86,2245.86,366.81,2228.14,379.2z"/>
		</g>
		<g>
			<path class="st4" d="M2228.14,449.34v127.09c12.7-10.55,22.3-25.31,26.77-42.83C2263.05,501.7,2251.25,468.74,2228.14,449.34z"/>
		</g>
		<g>
			<path class="st4" d="M2632.58,317.29c-21.34-33.88-51.18-60.36-89.49-79.42c-38.32-19.06-82.5-28.59-132.52-28.59h-95.93
				c-7.35,29.41-29.53,52.84-60.08,60.44c-8.8,2.19-17.58,2.28-26.42,1.46v82.09c18.38-22.41,42.33-39.54,69.54-49.3v-43.6h122.8
				c33.67,0,63.4,7.34,89.2,22.02c25.79,14.68,45.87,35.08,60.24,61.18c8.6,15.63,14.6,32.43,18.05,50.39h73.61
				C2657.05,366.36,2647.38,340.8,2632.58,317.29z"/>
		</g>
		<g>
			<path class="st4" d="M2569.91,519.75c-14.37,26.11-34.45,46.5-60.24,61.18c-25.8,14.68-55.53,22.02-89.2,22.02h-95.53
				c-0.88,17.78-4.45,34.98-10.39,51.09h96.02c50.02,0,94.19-9.53,132.52-28.59c38.31-19.06,68.15-45.53,89.49-79.42
				c16.33-25.93,26.41-54.35,30.24-85.25h-73.39C2586.37,482.01,2579.87,501.67,2569.91,519.75z"/>
		</g>
	</g>
	<g>
		<linearGradient id="SVGID_9_" gradientUnits="userSpaceOnUse" x1="2011.5068" y1="529.8505" x2="2675.7634" y2="146.6255">
			<stop  offset="0" style="stop-color:#6E150F"/>
			<stop  offset="1" style="stop-color:#AD2B17"/>
			<stop  offset="1" style="stop-color:#000000"/>
		</linearGradient>
		<path class="st14" d="M2194.07,430.48c2.89,0.69,5.84,1.38,8.77,2.1v-26.23c-4.04,7.1-7.05,14.92-8.77,23.32
			C2194.04,429.84,2194.07,430.03,2194.07,430.48z"/>
		<linearGradient id="SVGID_10_" gradientUnits="userSpaceOnUse" x1="1993.3093" y1="498.3083" x2="2657.5662" y2="115.0833">
			<stop  offset="0" style="stop-color:#6E150F"/>
			<stop  offset="1" style="stop-color:#AD2B17"/>
			<stop  offset="1" style="stop-color:#000000"/>
		</linearGradient>
		<path class="st15" d="M2190.6,432.84c-3.99-0.97-7.85-1.83-11.67-2.84c-38.38-10.21-71.07-33.75-93.15-65.13v129.11
			c1.48,0.48,2.97,0.94,4.5,1.35C2135.2,507.28,2181.69,478.46,2190.6,432.84z"/>
		<linearGradient id="SVGID_11_" gradientUnits="userSpaceOnUse" x1="1977.5686" y1="471.0244" x2="2641.8254" y2="87.7994">
			<stop  offset="0" style="stop-color:#6E150F"/>
			<stop  offset="1" style="stop-color:#AD2B17"/>
			<stop  offset="1" style="stop-color:#000000"/>
		</linearGradient>
		<path class="st16" d="M2128.33,330.91c-11.07,43.91,16.81,89.02,60.99,98.7c0.53,0.12,1.06,0.21,1.67,0.34
			c1.5-5.72,2.8-11.38,4.48-16.92c2.06-6.78,4.54-13.34,7.39-19.7V269.3C2167.63,271.02,2137.29,295.35,2128.33,330.91z"/>
		<linearGradient id="SVGID_12_" gradientUnits="userSpaceOnUse" x1="1862.0111" y1="270.7246" x2="2526.2678" y2="-112.5004">
			<stop  offset="0" style="stop-color:#6E150F"/>
			<stop  offset="1" style="stop-color:#AD2B17"/>
			<stop  offset="1" style="stop-color:#000000"/>
		</linearGradient>
		<path class="st17" d="M2172.67,109.98h-86.88v63.29C2106.38,143.96,2136.43,121.25,2172.67,109.98z"/>
		<linearGradient id="SVGID_13_" gradientUnits="userSpaceOnUse" x1="2196.3" y1="850.1587" x2="2860.5566" y2="466.9337">
			<stop  offset="0" style="stop-color:#6E150F"/>
			<stop  offset="1" style="stop-color:#AD2B17"/>
			<stop  offset="1" style="stop-color:#000000"/>
		</linearGradient>
		<path class="st18" d="M2661.12,559.09c-24.18,37.77-57.99,67.26-101.41,88.49c-43.43,21.24-93.48,31.86-150.16,31.86H2305.7
			c-20.45,34.35-53.25,61.19-94.05,73.89h181.23c84.2,0,158.56-13.79,223.08-41.36c64.5-27.57,114.72-65.86,150.65-114.88
			c30.14-41.12,47.63-86.56,52.48-136.31h-123.3C2691.77,496.5,2680.22,529.27,2661.12,559.09z"/>
		<linearGradient id="SVGID_14_" gradientUnits="userSpaceOnUse" x1="2024.0405" y1="551.5756" x2="2688.2971" y2="168.3506">
			<stop  offset="0" style="stop-color:#6E150F"/>
			<stop  offset="1" style="stop-color:#AD2B17"/>
			<stop  offset="1" style="stop-color:#000000"/>
		</linearGradient>
		<path class="st19" d="M2766.61,266.22c-35.93-49.01-86.15-87.31-150.65-114.88c-64.51-27.57-138.88-41.36-223.08-41.36h-124.26
			c27.22,10.84,47.62,36.66,51.47,65.91c0.35,2.68,0.58,5.34,0.69,7.98h88.77c56.68,0,106.73,10.62,150.16,31.86
			c43.41,21.24,77.22,50.74,101.41,88.49c17.56,27.42,28.74,57.33,33.54,89.72h123.45C2812.16,347.55,2795,304.98,2766.61,266.22z"
			/>
		<linearGradient id="SVGID_15_" gradientUnits="userSpaceOnUse" x1="2126.0225" y1="728.3444" x2="2790.2793" y2="345.1193">
			<stop  offset="0" style="stop-color:#6E150F"/>
			<stop  offset="1" style="stop-color:#AD2B17"/>
			<stop  offset="1" style="stop-color:#000000"/>
		</linearGradient>
		<path class="st20" d="M2085.78,732.32v21.02h30.28C2104.5,748.73,2094.16,741.43,2085.78,732.32z"/>
		<linearGradient id="SVGID_16_" gradientUnits="userSpaceOnUse" x1="2050.2754" y1="597.0493" x2="2714.532" y2="213.8243">
			<stop  offset="0" style="stop-color:#6E150F"/>
			<stop  offset="1" style="stop-color:#AD2B17"/>
			<stop  offset="1" style="stop-color:#000000"/>
		</linearGradient>
		<path class="st21" d="M2191.31,442.38c-13.73,54.62-53.61,97.77-105.53,116.36v59.83c11.09-12.03,25.89-20.91,43.31-25.02
			c12.28-2.9,24.54-2.05,36.92-0.28c12.79,1.83,25.32,0.6,36.83-3.17V435.7c-3.04-0.96-6.16-1.76-9.36-2.35
			C2192.76,436.35,2192.07,439.37,2191.31,442.38z"/>
	</g>
	<rect x="2588.84" y="415.75" class="st1" width="230.25" height="23.23"/>
</g>
<g>
	<g>
		<text transform="matrix(0.7 0 0 0.7 3653.3442 1000.2302)"><tspan x="0" y="0" class="st4" style="font-family:'Montserrat-SemiBold'; font-size:287px;">d</tspan><tspan x="191.14" y="0" style="fill:#AD2B17; font-family:'Montserrat-SemiBold'; font-size:287px;">facilities</tspan></text>
		<text transform="matrix(1 0 0 1 3698.0266 1104.0652)" class="st1" style="font-family:'Cunia'; font-size:79.1613px;">propreté &amp; services associés</text>
	</g>
	<g>
		<g>
			<linearGradient id="SVGID_17_" gradientUnits="userSpaceOnUse" x1="3842.4792" y1="629.546" x2="4714.2808" y2="38.9003">
				<stop  offset="0" style="stop-color:#010202"/>
				<stop  offset="0.4677" style="stop-color:#6E150F"/>
				<stop  offset="0.679" style="stop-color:#AD2B17"/>
			</linearGradient>
			<path class="st22" d="M4273.69,460.58v-66.83h250.9c-5.34-49.4-21.35-93.41-48.06-132.03c-33.39-48.26-80.71-85.47-141.97-111.67
				c-61.28-26.18-132.47-39.28-213.59-39.28H3979.6c26.35,11.23,45.97,36.57,49.75,65.21c5.8,44.01-21.33,83.51-64.48,93.82
				c-12.27,2.93-24.53,2.11-36.92,0.34c-41.65-5.96-80.08,20.06-90.37,60.87c-11.07,43.91,16.81,89.02,60.99,98.7
				c0.53,0.12,1.06,0.21,1.67,0.34c1.5-5.72,2.8-11.38,4.48-16.92c18.06-59.51,67.63-103.91,128.65-115.34
				c90.6-16.96,177.73,42.74,194.6,133.42c4.18,22.47,4.05,44.96-1.59,67.18c-8.12,31.96-36.49,56.9-68.99,61.14
				c-44.14,5.76-83.55-21.27-93.87-64.4c-2.96-12.37-2.13-24.72-0.32-37.19c5.98-41.31-20.18-79.88-60.83-90.15
				c-44.33-11.2-89.87,17.31-99.02,61.97c-0.04,0.17,0,0.36,0,0.82c3.06,0.73,6.18,1.46,9.29,2.22
				c62.36,15.33,111.23,67.31,122.86,130.69c15.36,83.64-33.01,163.34-112.38,189.24h197.85c81.13,0,152.31-13.08,213.59-39.28
				c61.26-26.18,108.57-63.41,141.97-111.67c28.35-40.99,44.66-88.06,48.93-141.19H4273.69z"/>
		</g>
		<g>
			<path class="st1" d="M3838.36,593.64c12.28-2.9,24.54-2.05,36.92-0.28c41,5.87,79.37-19.71,89.97-59.66
				c11.92-44.92-17.26-91.91-62.51-100.25c-0.72,2.99-1.42,6.02-2.17,9.03c-13.94,55.45-54.83,99.1-107.9,117.21v61.68
				C3803.98,607.96,3819.66,598.05,3838.36,593.64z"/>
		</g>
		<g>
			<path class="st1" d="M3899.86,432.93c-3.99-0.97-7.85-1.83-11.67-2.84c-39.78-10.58-73.45-35.48-95.52-68.59v131.75
				c2.24,0.81,4.53,1.54,6.87,2.16C3844.46,507.37,3890.96,478.55,3899.86,432.93z"/>
		</g>
		<g>
			<path class="st1" d="M3792.67,729.71v23.01h30.93C3811.62,747.63,3801.02,739.61,3792.67,729.71z"/>
		</g>
		<g>
			<path class="st1" d="M3879.69,110.77h-87.02v66.07C3812.89,146.47,3843.04,122.73,3879.69,110.77z"/>
		</g>
	</g>
	<g>
		<rect x="4296.35" y="414.96" class="st4" width="291.23" height="23.23"/>
	</g>
</g>
</svg>
